<mxfile host="app.diagrams.net" modified="2021-06-05T06:08:09.714Z" agent="5.0 (Windows NT 10.0; Win64; x64) AppleWebKit/537.36 (KHTML, like Gecko) Chrome/91.0.4472.77 Safari/537.36" etag="EavyJc1I29WtAufLApzh" version="14.7.6" type="github">
  <diagram id="xiFpfRpr7VZX7bMGcbf2" name="Page-1">
    <mxGraphModel dx="1800" dy="705" grid="1" gridSize="10" guides="1" tooltips="1" connect="1" arrows="1" fold="1" page="1" pageScale="1" pageWidth="827" pageHeight="1169" math="0" shadow="0">
      <root>
        <mxCell id="0" />
        <mxCell id="1" parent="0" />
        <mxCell id="nbTuFVHclECet8sjOu9M-4" value="" style="edgeStyle=orthogonalEdgeStyle;rounded=0;orthogonalLoop=1;jettySize=auto;html=1;" edge="1" parent="1" source="nbTuFVHclECet8sjOu9M-1" target="nbTuFVHclECet8sjOu9M-2">
          <mxGeometry relative="1" as="geometry" />
        </mxCell>
        <mxCell id="nbTuFVHclECet8sjOu9M-1" value="메인 페이지" style="rounded=0;whiteSpace=wrap;html=1;align=center;" vertex="1" parent="1">
          <mxGeometry x="100" y="50" width="120" height="60" as="geometry" />
        </mxCell>
        <mxCell id="nbTuFVHclECet8sjOu9M-5" value="" style="edgeStyle=orthogonalEdgeStyle;rounded=0;orthogonalLoop=1;jettySize=auto;html=1;" edge="1" parent="1" source="nbTuFVHclECet8sjOu9M-2" target="nbTuFVHclECet8sjOu9M-3">
          <mxGeometry relative="1" as="geometry" />
        </mxCell>
        <mxCell id="nbTuFVHclECet8sjOu9M-2" value="회원가입&lt;br&gt;/member/signup.jsp" style="rounded=0;whiteSpace=wrap;html=1;fillColor=#fff2cc;strokeColor=#d6b656;" vertex="1" parent="1">
          <mxGeometry x="100" y="190" width="120" height="60" as="geometry" />
        </mxCell>
        <mxCell id="nbTuFVHclECet8sjOu9M-3" value="회원가입성공&lt;br&gt;/member/signup.kh" style="rounded=0;whiteSpace=wrap;html=1;fillColor=#f8cecc;strokeColor=#b85450;" vertex="1" parent="1">
          <mxGeometry x="100" y="330" width="120" height="60" as="geometry" />
        </mxCell>
        <mxCell id="nbTuFVHclECet8sjOu9M-6" value="" style="swimlane;startSize=0;" vertex="1" parent="1">
          <mxGeometry x="60" y="10" width="200" height="420" as="geometry" />
        </mxCell>
        <mxCell id="nbTuFVHclECet8sjOu9M-7" value="회원가입&lt;br&gt;" style="text;html=1;align=center;verticalAlign=middle;resizable=0;points=[];autosize=1;strokeColor=none;" vertex="1" parent="1">
          <mxGeometry x="60" y="20" width="60" height="20" as="geometry" />
        </mxCell>
        <mxCell id="nbTuFVHclECet8sjOu9M-13" value="" style="edgeStyle=orthogonalEdgeStyle;rounded=0;orthogonalLoop=1;jettySize=auto;html=1;" edge="1" parent="1" source="nbTuFVHclECet8sjOu9M-8" target="nbTuFVHclECet8sjOu9M-9">
          <mxGeometry relative="1" as="geometry" />
        </mxCell>
        <mxCell id="nbTuFVHclECet8sjOu9M-8" value="메인페이지" style="rounded=0;whiteSpace=wrap;html=1;" vertex="1" parent="1">
          <mxGeometry x="354" y="50" width="120" height="60" as="geometry" />
        </mxCell>
        <mxCell id="nbTuFVHclECet8sjOu9M-12" value="" style="edgeStyle=orthogonalEdgeStyle;rounded=0;orthogonalLoop=1;jettySize=auto;html=1;" edge="1" parent="1" source="nbTuFVHclECet8sjOu9M-9" target="nbTuFVHclECet8sjOu9M-11">
          <mxGeometry relative="1" as="geometry" />
        </mxCell>
        <mxCell id="nbTuFVHclECet8sjOu9M-9" value="로그인&lt;br&gt;/member/login.jsp" style="rounded=0;whiteSpace=wrap;html=1;" vertex="1" parent="1">
          <mxGeometry x="354" y="180" width="120" height="60" as="geometry" />
        </mxCell>
        <mxCell id="nbTuFVHclECet8sjOu9M-11" value="로그인 성공&lt;br&gt;/member/login.kh" style="rounded=0;whiteSpace=wrap;html=1;" vertex="1" parent="1">
          <mxGeometry x="354" y="340" width="120" height="60" as="geometry" />
        </mxCell>
        <mxCell id="nbTuFVHclECet8sjOu9M-16" value="" style="swimlane;startSize=0;" vertex="1" parent="1">
          <mxGeometry x="314" y="30" width="200" height="380" as="geometry" />
        </mxCell>
      </root>
    </mxGraphModel>
  </diagram>
</mxfile>
